<svg xmlns="http://www.w3.org/2000/svg" viewBox="0 0 512 512" fill="#131119"><path d="M382 135l-3-4-94-73-24 31 93 71 69 90 30-24-71-91zM259 255l-71-92-30 24 73 94 3 3 91 70 24-30-90-69z"/><path d="M264 277L85 465l-38-38 188-180-27-27L6 413a19 19 0 000 27l66 66a19 19 0 0027 0l193-202-28-27z"/><path d="M109 345l27-27 58 58-27 27zM506 257l-43-43c-7-8-20-8-27 0L313 337c-8 7-8 19 0 27l43 43a19 19 0 0027 0l123-123c8-7 8-20 0-27zM370 366l-17-16 96-96 17 17-96 95zM298 49L255 6c-8-8-20-8-27 0L105 129c-8 7-8 19 0 27l43 43a19 19 0 0027 0L298 76c8-7 8-19 0-27zM162 159l-17-17 96-96 17 17-96 96z"/></svg>