<svg xmlns="http://www.w3.org/2000/svg" viewBox="0 0 106.7 106.7"><g fill="#fff"><path d="M11.7 67.6L8.1 69C2.7 71.3-.1 73.7 0 75.8c.3 3 3.8 5.4 10.2 7a62 62 0 0025.4 1.5v-8.7l-6.9 2.6c-7.2 2.5-10.9.4-10.9.4-1.1-.7-1.6-2.4 1.4-3.5l3.8-1.4 12.6-4.5V59l-3.2 1-20.7 7.5zM64.3 32.5v25.9c5.4 2.6 10.2 2.8 13.8 0 3.7-2.5 5.7-7 5.7-13.8 0-7.1-1.4-12.5-4.5-16.1-2.8-3.8-7.8-7-15.2-9.5-9.2-3-17-5.6-23.2-7v77.6l16.7 5V30.4c-.1-4 6.7-3.6 6.7 2.2z"/><path d="M106.7 72.5c-.1-2.7-3.3-4.8-9-6.7a50 50 0 00-17.9-3c-5.5.2-12.1 2-18 3.9v9.9L78 70.9s4.9-1.8 9.1-.7c3.2.8 3 2.6-.2 3.7l-3.7 1.5L61.8 83v10l10-3.5 24-8.5 2.8-1.3c5.8-2.1 8.4-4.4 8.1-7.3z"/></g></svg>